# xmcd
#
# Track frame offsets: 
#        150
#        14264
#        27581
#        46411
#
# Disc length: 862 seconds
#
# Revision: 1
# Processed by: cddbd v1.5.1PL0 Copyright (c) Steve Scherf et al.
# Submitted via: ExactAudioCopy v0.90b4
#
DISCID=2b035c04
DTITLE=The 411 featuring Ghostface Killah - On My Knees
DYEAR=2004
DGENRE=R&B
TTITLE0=On My Knees (Radio Version)
TTITLE1=On My Knees (Radio Version No Rap)
TTITLE2=On My Knees (Kardinal Beats Remix)
TTITLE3=On My Knees (Blacksmith 12'' Mix)
EXTD=sooob
EXTT0=
EXTT1=
EXTT2=
EXTT3=
PLAYORDER=
